<svg xmlns="http://www.w3.org/2000/svg" viewBox="0 0 512 512">
  <defs>
    <radialGradient id="g" cx="38%" cy="32%" r="75%">
      <stop offset="0%" stop-color="#3ec3ff"/>
      <stop offset="60%" stop-color="#1f8fe0"/>
      <stop offset="100%" stop-color="#0b3a66"/>
    </radialGradient>
  </defs>
  <rect width="512" height="512" rx="112" fill="#0b1220"/>
  <circle cx="256" cy="256" r="170" fill="url(#g)"/>
  <g fill="none" stroke="#0b3a66" stroke-width="7" opacity="0.8">
    <ellipse cx="256" cy="256" rx="170" ry="64"/>
    <ellipse cx="256" cy="256" rx="170" ry="128"/>
    <line x1="86" y1="256" x2="426" y2="256"/>
    <ellipse cx="256" cy="256" rx="64" ry="170"/>
    <ellipse cx="256" cy="256" rx="128" ry="170"/>
  </g>
  <g fill="#7ee08a" opacity="0.92">
    <path d="M150 196c26-10 64-6 70 14s-18 30-6 48-30 26-44 10-44-24-38-46 0-18 18-26z"/>
    <path d="M300 150c30 4 58 26 50 44s-34 8-40 30 18 36-6 44-40-22-30-46-10-40 6-56 6-18 14-16z"/>
    <path d="M286 300c22-6 50 8 46 28s-34 16-40 36-26 18-34 0 2-44 16-52 4-10 12-12z"/>
  </g>
</svg>
