<svg xmlns="http://www.w3.org/2000/svg" width="512" height="512" viewBox="0 0 512 512">
  <defs>
    <linearGradient id="bg" x1="0" y1="0" x2="0" y2="1">
      <stop offset="0%" stop-color="#0d1b34"/>
      <stop offset="55%" stop-color="#091228"/>
      <stop offset="100%" stop-color="#050a14"/>
    </linearGradient>
    <radialGradient id="globe" cx="40%" cy="34%" r="78%">
      <stop offset="0%" stop-color="#5fe0ff"/>
      <stop offset="48%" stop-color="#1f9fe0"/>
      <stop offset="100%" stop-color="#0a3a66"/>
    </radialGradient>
    <radialGradient id="sheen" cx="38%" cy="30%" r="42%">
      <stop offset="0%" stop-color="#ffffff" stop-opacity="0.5"/>
      <stop offset="100%" stop-color="#ffffff" stop-opacity="0"/>
    </radialGradient>
  </defs>

  <rect width="512" height="512" fill="#070d1c"/>
  <rect width="512" height="512" fill="url(#bg)"/>

  <g stroke="#13315a" stroke-width="2" opacity="0.5"><line x1="64" y1="0" x2="64" y2="512"/><line x1="128" y1="0" x2="128" y2="512"/><line x1="192" y1="0" x2="192" y2="512"/><line x1="256" y1="0" x2="256" y2="512"/><line x1="320" y1="0" x2="320" y2="512"/><line x1="384" y1="0" x2="384" y2="512"/><line x1="448" y1="0" x2="448" y2="512"/><line x1="0" y1="64" x2="512" y2="64"/><line x1="0" y1="128" x2="512" y2="128"/><line x1="0" y1="192" x2="512" y2="192"/><line x1="0" y1="256" x2="512" y2="256"/><line x1="0" y1="320" x2="512" y2="320"/><line x1="0" y1="384" x2="512" y2="384"/><line x1="0" y1="448" x2="512" y2="448"/></g>

  <circle cx="256" cy="256" r="176" fill="none" stroke="#22d3ee" stroke-width="2" opacity="0.16"/>
  <circle cx="256" cy="256" r="166" fill="none" stroke="#22d3ee" stroke-width="3" opacity="0.22"/>
  <circle cx="256" cy="256" r="158" fill="none" stroke="#22d3ee" stroke-width="6" opacity="0.30"/>

  <circle cx="256" cy="256" r="150" fill="url(#globe)"/>
  <clipPath id="ball"><circle cx="256" cy="256" r="150"/></clipPath>
  <g clip-path="url(#ball)">
    <ellipse cx="256" cy="256" rx="150" ry="54" fill="none" stroke="#0b3a66" stroke-width="6"/><ellipse cx="256" cy="256" rx="150" ry="108" fill="none" stroke="#0b3a66" stroke-width="6"/><line x1="106" y1="256" x2="406" y2="256" stroke="#0b3a66" stroke-width="6"/><ellipse cx="256" cy="256" rx="56" ry="150" fill="none" stroke="#0b3a66" stroke-width="6"/><ellipse cx="256" cy="256" rx="112" ry="150" fill="none" stroke="#0b3a66" stroke-width="6"/><line x1="256" y1="106" x2="256" y2="406" stroke="#0b3a66" stroke-width="6"/>
    <g fill="#7ff09a" opacity="0.95">
      <path d="M196 188 C 230 172, 286 180, 292 206 C 298 232, 252 242, 264 268 C 276 294, 226 306, 210 282 C 194 258, 170 246, 178 220 C 184 200, 182 196, 196 188 Z"/>
      <path d="M318 168 C 352 174, 372 206, 352 224 C 332 242, 348 262, 326 276 C 304 290, 286 268, 296 244 C 306 220, 300 196, 312 180 Z"/>
      <path d="M300 312 C 330 304, 356 322, 346 344 C 336 366, 306 360, 294 380 C 282 400, 262 386, 268 360 C 274 334, 286 318, 300 312 Z"/>
    </g>
    <ellipse cx="256" cy="256" rx="150" ry="150" fill="url(#sheen)"/>
  </g>

  <g transform="translate(374,150)">
    <path d="M0 -30 C 20 -30, 32 -16, 32 2 C 32 26, 0 52, 0 52 C 0 52, -32 26, -32 2 C -32 -16, -20 -30, 0 -30 Z" fill="#f72585"/>
    <circle cx="0" cy="2" r="11" fill="#0a1424"/>
  </g>
</svg>